# xmcd
#
# Track frame offsets:
#	150
#	10913
#	20974
#	34626
#	45902
#	60175
#	76770
#	94067
#	106450
#	118563
#	136103
#	156505
#	173451
#	187049
#	199945
#	211680
#	222551
#	228562
#	238056
#	247469
#
# Disc length: 3560 seconds
#
# Revision: 0
# Processed by: cddbd v1.5.2PL0 Copyright (c) Steve Scherf et al.
# Submitted via: EasyCDDAExtractor 16.0.6.1
#
DISCID=110de614
DTITLE=Συλλογικός δίσκος - Εβδομήντα χρόνια-Μ. Θεοδωράκης 1     
DYEAR=1995
DGENRE=Ποικίλη
TTITLE0=Παιδ. χορ. Δημ. Ωδ. Λάρισας - Μέσ' στην καρδιά μου κλείνω την Ελλάδα
TTITLE1=Μερκούρη Μελίνα - Σε πότισα ροδόσταμο
TTITLE2=Χατζής Κώστας - Στρώσε το στρώμα μου
TTITLE3=Γιοβάννα - Αν θυμηθείς τ' όνειρό μου
TTITLE4=Βογιατζής Γιάννης - Μέσα στα μαύρα σου μαλλιά
TTITLE5=Χορωδία Τρικάλων - Χάθηκα
TTITLE6=Γιοβάννα - Προδομένη μου αγάπη
TTITLE7=Βογιατζής Γιάννης - Όμορφη πόλη
TTITLE8=Αθηναίοι - Το ψωμί είναι στο τραπέζι [στ. Ι. Καμπανέλλη]
TTITLE9=Μαβίλη Αλέκα - Από το παράθυρό σου
TTITLE10=Χορωδία Τρικάλων - Πού πέταξε τ' αγόρι μου
TTITLE11=Άνευ ερμηνευτού - Zorba's Dance [Γ. Ζαμπέτας]
TTITLE12=Χορωδία Τρικάλων - Βράχο, βράχο τον καημό μου
TTITLE13=Καμπά Νίκη - Μαργαρίτα Μαγιοπούλα
TTITLE14=Μούτσιος Γιώργος - Μέσα στις θαλασσινές σπηλιές
TTITLE15=Φαραντούρη Μαρία - Του μικρού βοριά
TTITLE16=Θεοδωράκης Μίκης - Ήταν 18 Νοέμβρη
TTITLE17=Φάμπας Δημήτρης - Άνοιξε λίγο τα παράθυρο [στ. Brendan Behan/Βασ. Ρώτ
TTITLE17=ας]
TTITLE18=Θεοδωράκης Μίκης - Το γελαστό παιδί
TTITLE19=Χορ. Gerald Calvi - Άσμα ασμάτων
EXTD=
EXTT0=
EXTT1=
EXTT2=
EXTT3=
EXTT4=
EXTT5=
EXTT6=
EXTT7=
EXTT8=
EXTT9=
EXTT10=
EXTT11=
EXTT12=
EXTT13=
EXTT14=
EXTT15=
EXTT16=
EXTT17=
EXTT18=
EXTT19=
PLAYORDER=
